#!OML:ASF H:\Martial Arts Walks\Project 1\Capture day 1\Session 1\male.ASF
:FULLY-SPECIFIED
:DEGREES
1680
root -0.185731 14.872 -6.81657 9.55389 -1.69036 1.84553
lowerback 16.5801 -1.99821 -3.66115
upperback 1.08068 -3.09128 2.70048
thorax -7.78966 -1.31838 5.70063
lowerneck -3.06969 1.76819 -2.01246
upperneck -1.31231 2.41969 -1.24671
head 0.0917637 1.21408 -0.027829
rclavicle 1.94809e-014 -1.66979e-014
rhumerus -60.5068 23.3848 -96.0407
rradius 97.2685
rwrist -80.8272
rhand -7.11452 -35.9661
rfingers 7.12502
rthumb 18.7607 -65.0814
lclavicle 1.94809e-014 -1.66979e-014
lhumerus 48.894 0.08773 69.6004
lradius 29.5408
lwrist -17.0798
lhand -26.4819 41.1134
lfingers 7.12502
lthumb 0.0802856 431.093
rfemur -53.0813 -18.5043 25.3723
rtibia 77.0783
rfoot -23.5216 -23.5588
rtoes -4.2275
lfemur -36.1489 20.7275 -24.7652
ltibia 94.1254
lfoot -13.9873 16.4556
ltoes -5.04573
1681
root -0.165223 14.8848 -6.99345 9.94419 -0.931166 2.06419
lowerback 16.035 -2.27978 -3.62561
upperback 0.88278 -3.43819 2.77616
thorax -7.65688 -1.48834 5.80995
lowerneck -3.1611 1.71983 -1.98918
upperneck -1.21596 2.3583 -1.32486
head 0.137216 1.18139 -0.0539541
rclavicle 2.52457e-014 2.50469e-014
rhumerus -60.0098 23.47 -95.8738
rradius 97.7776
rwrist -78.9477
rhand -5.4792 -33.6819
rfingers 7.12502
rthumb 20.3329 -62.6375
lclavicle 2.52457e-014 2.50469e-014
lhumerus 48.7838 -0.194465 69.528
lradius 29.052
lwrist -17.421
lhand -26.3791 40.9823
lfingers 7.12502
lthumb 0.179594 430.962
rfemur -54.3304 -19.6239 25.6316
rtibia 76.9123
rfoot -22.9979 -22.8121
rtoes -3.9194
lfemur -32.1565 20.5436 -23.3979
ltibia 92.7808
lfoot -13.9679 17.0342
ltoes -4.51997
1682
root -0.146889 14.8928 -7.16981 10.266 -0.155609 2.28795
lowerback 15.5815 -2.53327 -3.67987
upperback 0.684942 -3.76535 2.87687
thorax -7.56828 -1.64388 5.99552
lowerneck -3.26436 1.65687 -1.98132
upperneck -1.09814 2.27879 -1.39591
head 0.190983 1.13933 -0.0755254
rclavicle -2.38542e-015 1.27222e-014
rhumerus -59.5542 23.5155 -95.6775
rradius 98.6414
rwrist -76.1644
rhand -3.22647 -31.4776
rfingers 7.12502
rthumb 22.4966 -60.1872
lclavicle -2.38542e-015 1.27222e-014
lhumerus 48.7211 -0.570246 69.4497
lradius 28.5626
lwrist -17.7028
lhand -26.3309 40.9948
lfingers 7.12502
lthumb 0.22619 430.974
rfemur -55.5114 -20.7114 25.8805
rtibia 76.7784
rfoot -22.4591 -22.1449
rtoes -3.72384
lfemur -28.1044 20.2113 -21.9992
ltibia 91.0228
lfoot -13.9448 18.0592
ltoes -3.88228
1683
root -0.13149 14.8951 -7.34638 10.5432 0.63094 2.53852
lowerback 15.1964 -2.74915 -3.85671
upperback 0.482917 -4.06472 2.99603
thorax -7.51352 -1.78009 6.2672
lowerneck -3.37912 1.57131 -1.98211
upperneck -0.951856 2.17043 -1.45698
head 0.255265 1.08241 -0.0929174
rclavicle -1.66979e-014 6.36111e-015
rhumerus -59.1108 23.501 -95.4256
rradius 99.9106
rwrist -72.962
rhand -0.532702 -29.2474
rfingers 7.12502
rthumb 25.08 -57.6205
lclavicle -1.66979e-014 6.36111e-015
lhumerus 48.7047 -1.10253 69.3188
lradius 28.1121
lwrist -17.8288
lhand -26.4039 41.1819
lfingers 7.12502
lthumb 0.155628 431.162
rfemur -56.6686 -21.7589 26.1012
rtibia 76.6952
rfoot -21.9042 -21.5582
rtoes -3.63049
lfemur -24.0679 19.7529 -20.6276
ltibia 88.8808
lfoot -13.9501 19.4961
ltoes -2.89369
1684
root -0.118912 14.8904 -7.52315 10.8113 1.44287 2.84763
lowerback 14.8459 -2.93296 -4.17591
upperback 0.268815 -4.34629 3.12001
thorax -7.47906 -1.90141 6.62237
lowerneck -3.50913 1.46099 -1.98862
upperneck -0.774652 2.03041 -1.4948
head 0.331423 1.00925 -0.102715
rclavicle -1.09332e-014 -3.97569e-015
rhumerus -58.6205 23.4192 -95.0902
rradius 101.617
rwrist -69.9404
rhand 2.4711 -26.8873
rfingers 7.12502
rthumb 27.955 -54.8259
lclavicle -1.09332e-014 -3.97569e-015
lhumerus 48.7275 -1.85744 69.0531
lradius 27.7556
lwrist -17.7254
lhand -26.6724 41.6166
lfingers 7.12502
lthumb -0.103641 431.596
rfemur -57.8582 -22.7822 26.2695
rtibia 76.685
rfoot -21.357 -21.0314
rtoes -3.5606
lfemur -20.1397 19.1628 -19.3537
ltibia 86.3882
lfoot -14.0442 21.267
ltoes -1.5794
1685
root -0.108721 14.8776 -7.69971 11.1167 2.28184 3.23312
lowerback 14.4756 -3.08746 -4.6351
upperback 0.0330052 -4.61192 3.23429
thorax -7.44463 -2.00947 7.04086
lowerneck -3.64095 1.32007 -1.99937
upperneck -0.581183 1.85012 -1.49857
head 0.412828 0.91593 -0.102324
rclavicle 1.03368e-014 6.36111e-015
rhumerus -58.0136 23.2654 -94.6532
rradius 103.78
rwrist -67.7037
rhand 5.42459 -24.8808
rfingers 7.12502
rthumb 30.7749 -52.3249
lclavicle 1.03368e-014 6.36111e-015
lhumerus 48.7671 -2.90789 68.5728
lradius 27.5753
lwrist -17.4032
lhand -27.1505 42.2874
lfingers 7.12502
lthumb -0.565431 432.266
rfemur -59.1459 -23.7712 26.3793
rtibia 76.765
rfoot -20.8106 -20.5732
rtoes -3.51263
lfemur -16.4033 18.4601 -18.2227
ltibia 83.5844
lfoot -14.3048 23.1978
ltoes 0.0686226
1686
root -0.0997566 14.8569 -7.87596 11.4674 3.20138 3.70604
lowerback 14.0855 -3.23601 -5.19704
upperback -0.22349 -4.88611 3.32437
thorax -7.40849 -2.11753 7.4901
lowerneck -3.77733 1.14572 -2.01526
upperneck -0.38089 1.62542 -1.45438
head 0.497081 0.800705 -0.0875578
rclavicle -1.19271e-015 -7.15625e-015
rhumerus -57.1941 23.0498 -94.1006
rradius 106.366
rwrist -66.595
rhand 8.34151 -23.0493
rfingers 7.12502
rthumb 33.5517 -49.9314
lclavicle -1.19271e-015 -7.15625e-015
lhumerus 48.8057 -4.28805 67.8356
lradius 27.664
lwrist -16.989
lhand -27.8061 43.223
lfingers 7.12502
lthumb -1.19869 433.199
rfemur -60.5352 -24.7801 26.4232
rtibia 76.9355
rfoot -20.2762 -20.175
rtoes -3.4509
lfemur -12.9002 17.621 -17.2438
ltibia 80.5021
lfoot -14.7046 25.0807
ltoes 1.88278
1687
root -0.0919207 14.8294 -8.05183 11.8735 4.21078 4.25225
lowerback 13.6696 -3.38237 -5.82631
upperback -0.504434 -5.16717 3.38457
thorax -7.37407 -2.22564 7.9426
lowerneck -3.89222 0.932872 -2.0485
upperneck -0.19287 1.34865 -1.35081
head 0.574062 0.660367 -0.0533921
rclavicle -6.91771e-014 3.65764e-014
rhumerus -56.0893 22.7851 -93.4298
rradius 109.288
rwrist -66.574
rhand 11.1418 -21.6193
rfingers 7.12502
rthumb 36.2084 -47.8843
lclavicle -6.91771e-014 3.65764e-014
lhumerus 48.8123 -6.00427 66.8581
lradius 28.1101
lwrist -16.7191
lhand -28.5081 44.238
lfingers 7.12502
lthumb -1.87667 434.209
rfemur -62.0188 -25.8012 26.4136
rtibia 77.1805
rfoot -19.7577 -19.8366
rtoes -3.33366
lfemur -9.64982 16.6743 -16.3875
ltibia 77.1665
lfoot -15.1141 26.7009
ltoes 3.59701
1688
root -0.0847714 14.7968 -8.22794 12.3347 5.3211 4.83733
lowerback 13.2393 -3.5309 -6.46819
upperback -0.807775 -5.45146 3.41868
thorax -7.3503 -2.33325 8.37114
lowerneck -3.97719 0.678931 -2.11135
upperneck -0.0276283 1.01622 -1.18423
head 0.639447 0.493422 0.00322121
rclavicle 1.64991e-014 -2.70347e-014
rhumerus -54.6179 22.4986 -92.6284
rradius 112.422
rwrist -67.2351
rhand 13.7855 -21.0333
rfingers 7.12502
rthumb 38.7072 -46.6365
lclavicle 1.64991e-014 -2.70347e-014
lhumerus 48.7641 -8.02032 65.7123
lradius 28.9818
lwrist -16.8744
lhand -29.1023 45.251
lfingers 7.12502
lthumb -2.45054 435.217
rfemur -63.571 -26.8296 26.3826
rtibia 77.4686
rfoot -19.2331 -19.5708
rtoes -3.18716
lfemur -6.65512 15.6458 -15.5987
ltibia 73.5979
lfoot -15.3274 27.8896
ltoes 4.92042
1689
root -0.0782277 14.7613 -8.40494 12.8322 6.53409 5.41363
lowerback 12.8199 -3.67686 -7.06262
upperback -1.12761 -5.72373 3.43449
thorax -7.35329 -2.434 8.74965
lowerneck -4.02433 0.378318 -2.21635
upperneck 0.114355 0.620957 -0.955965
head 0.692438 0.296315 0.0839397
rclavicle 4.25399e-014 -4.29375e-014
rhumerus -52.7211 22.2076 -91.6729
rradius 115.621
rwrist -67.9647
rhand 16.6886 -20.7194
rfingers 7.12502
rthumb 41.4387 -45.4948
lclavicle 4.25399e-014 -4.29375e-014
lhumerus 48.6381 -10.2785 64.523
lradius 30.3115
lwrist -17.6871
lhand -29.4131 46.0292
lfingers 7.12502
lthumb -2.75069 435.991
rfemur -65.1392 -27.8486 26.3665
rtibia 77.7611
rfoot -18.6811 -19.393
rtoes -3.04523
lfemur -3.89462 14.5767 -14.8034
ltibia 69.8102
lfoot -15.1222 28.5723
ltoes 5.54842
1690
root -0.071924 14.7251 -8.58283 13.3413 7.85459 5.93464
lowerback 12.4338 -3.81848 -7.5501
upperback -1.45859 -5.97377 3.44161
thorax -7.39802 -2.52405 9.05568
lowerneck -4.02607 0.0289685 -2.37928
upperneck 0.240743 0.160647 -0.664947
head 0.735185 0.0678153 0.191929
rclavicle -3.91606e-014 1.03368e-014
rhumerus -50.3635 21.9298 -90.5496
rradius 118.738
rwrist -68.1875
rhand 20.0124 -20.0708
rfingers 7.12502
rthumb 44.5466 -43.7468
lclavicle -3.91606e-014 1.03368e-014
lhumerus 48.3982 -12.7096 63.4366
lradius 32.1069
lwrist -19.2385
lhand -29.2944 46.5325
lfingers 7.12502
lthumb -2.63601 436.496
rfemur -66.6667 -28.8497 26.3959
rtibia 78.0234
rfoot -18.0915 -19.3111
rtoes -2.90744
lfemur -1.34 13.4943 -13.9377
ltibia 65.8157
lfoot -14.3875 28.7593
ltoes 5.19644
1691
root -0.0654714 14.6894 -8.76175 13.8357 9.27859 6.36902
lowerback 12.0874 -3.95061 -7.89334
upperback -1.78879 -6.18996 3.44665
thorax -7.48261 -2.59972 9.27442
lowerneck -3.98184 -0.373145 -2.60518
upperneck 0.364125 -0.369822 -0.31625
head 0.773022 -0.194957 0.326828
rclavicle -1.39149e-014 -1.03368e-014
rhumerus -47.5207 21.6648 -89.2186
rradius 121.667
rwrist -67.6691
rhand 23.8114 -18.8658
rfingers 7.12502
rthumb 48.0677 -41.047
lclavicle -1.39149e-014 -1.03368e-014
lhumerus 48.0014 -15.2725 62.5674
lradius 34.3799
lwrist -21.3079
lhand -28.7358 46.6473
lfingers 7.12502
lthumb -2.0965 436.617
rfemur -68.1062 -29.8232 26.483
rtibia 78.2308
rfoot -17.4548 -19.3267
rtoes -2.76628
lfemur 1.04182 12.4226 -12.9644
ltibia 61.6292
lfoot -13.183 28.5029
ltoes 3.8352
1692
root -0.0583131 14.6552 -8.94147 14.2912 10.788 6.7059
lowerback 11.7834 -4.06813 -8.08551
upperback -2.10828 -6.36531 3.45289
thorax -7.6015 -2.65895 9.40528
lowerneck -3.8907 -0.827044 -2.90305
upperneck 0.497281 -0.969057 0.0903677
head 0.811621 -0.491607 0.490806
rclavicle -3.1408e-014 1.74931e-014
rhumerus -44.1737 21.3784 -87.6091
rradius 124.315
rwrist -66.501
rhand 28.0052 -17.0544
rfingers 7.12502
rthumb 51.9049 -37.2164
lclavicle -3.1408e-014 1.74931e-014
lhumerus 47.3801 -17.9327 62.0158
lradius 37.1392
lwrist -23.4475
lhand -27.8362 46.2679
lfingers 7.12502
lthumb -1.22767 436.244
rfemur -69.4226 -30.7614 26.6188
rtibia 78.3687
rfoot -16.7791 -19.4253
rtoes -2.57672
lfemur 3.27941 11.3748 -11.8856
ltibia 57.268
lfoot -11.6521 27.9078
ltoes 1.53019
